# xmcd
# 
# Track frame offsets:
#     183
#     13115
#     28830
#     40828
#     52165
#     64265
#     77623
#     91495
#     113578
#     128413
#     145648
#     158130
#     169638
#     180440
#     194338
#     210128
#     220000
#     234360
# 
# Disc length: 3310
# 
# Revision: 1
# Processed by: cddbd v1.5.2PL0 Copyright (c) Steve Scherf et al.
# Submitted via: fre:ac v1.0.27
# 
DISCID=e30cec12
DTITLE=Waylon Jennings and Willie Nelson - Country Store Collection
DYEAR=0
DGENRE=Country
TTITLE0=Just To Satisfy You
TTITLE1=Homeward Bound
TTITLE2=Why Baby Why
TTITLE3=Mamas Don't Let Your Babies Grow Up To Be Cowboys
TTITLE4=No Love At All
TTITLE5=Blackjack County Chains
TTITLE6=The Year 2003 Minus 25
TTITLE7=Til I Gain Contol Again
TTITLE8=Would You Lay With Me
TTITLE9=Take It To The Limit
TTITLE10=Slow Rollin' Low
TTITLE11=Pick Up The Tempo
TTITLE12=I Can Get Off On You
TTITLE13=Don't Cuss The Fiddle
TTITLE14=Old Friends
TTITLE15=The Wurlitzer Prize(I Don't Want To Get Over You)
TTITLE16=Why Do I Have To Choose
TTITLE17=We Had It All
EXTD=ID3G: 2
EXTT0=
EXTT1=
EXTT2=
EXTT3=
EXTT4=
EXTT5=
EXTT6=
EXTT7=
EXTT8=
EXTT9=
EXTT10=
EXTT11=
EXTT12=
EXTT13=
EXTT14=
EXTT15=
EXTT16=
EXTT17=
PLAYORDER=
